<?xml version="1.0" encoding="UTF-8" standalone="no"?>
<svg width="599px" height="125px" viewBox="0 0 599 125" version="1.1" xmlns="http://www.w3.org/2000/svg" xmlns:xlink="http://www.w3.org/1999/xlink" xmlns:sketch="http://www.bohemiancoding.com/sketch/ns">
    <!-- Generator: Sketch 3.0.3 (7891) - http://www.bohemiancoding.com/sketch -->
    <title>Logo</title>
    <desc>Created with Sketch.</desc>
    <defs>
        <radialGradient cx="51.5466287%" cy="33.4773153%" fx="51.5466287%" fy="33.4773153%" r="59.3606452%" id="radialGradient-1">
            <stop stop-color="#000000" stop-opacity="0" offset="0%"></stop>
            <stop stop-color="#000000" stop-opacity="0" offset="79.8788265%"></stop>
            <stop stop-color="#000000" stop-opacity="0.179744112" offset="100%"></stop>
        </radialGradient>
        <filter x="-50%" y="-50%" width="200%" height="200%" filterUnits="objectBoundingBox" id="filter-2">
            <feOffset dx="0" dy="3" in="SourceAlpha" result="shadowOffsetOuter1"></feOffset>
            <feGaussianBlur stdDeviation="3.5" in="shadowOffsetOuter1" result="shadowBlurOuter1"></feGaussianBlur>
            <feColorMatrix values="0 0 0 0 0   0 0 0 0 0   0 0 0 0 0  0 0 0 0.102043705 0" in="shadowBlurOuter1" type="matrix" result="shadowMatrixOuter1"></feColorMatrix>
            <feOffset dx="-2" dy="-2" in="SourceAlpha" result="shadowOffsetInner1"></feOffset>
            <feGaussianBlur stdDeviation="0.5" in="shadowOffsetInner1" result="shadowBlurInner1"></feGaussianBlur>
            <feComposite in="shadowBlurInner1" in2="SourceAlpha" operator="arithmetic" k2="-1" k3="1" result="shadowInnerInner1"></feComposite>
            <feColorMatrix values="0 0 0 0 0   0 0 0 0 0   0 0 0 0 0  0 0 0 0.173137455 0" in="shadowInnerInner1" type="matrix" result="shadowMatrixInner1"></feColorMatrix>
            <feOffset dx="2" dy="2" in="SourceAlpha" result="shadowOffsetInner2"></feOffset>
            <feGaussianBlur stdDeviation="0.5" in="shadowOffsetInner2" result="shadowBlurInner2"></feGaussianBlur>
            <feComposite in="shadowBlurInner2" in2="SourceAlpha" operator="arithmetic" k2="-1" k3="1" result="shadowInnerInner2"></feComposite>
            <feColorMatrix values="0 0 0 0 0.98913159   0 0 0 0 0.899486995   0 0 0 0 0.498585703  0 0 0 0.408036119 0" in="shadowInnerInner2" type="matrix" result="shadowMatrixInner2"></feColorMatrix>
            <feMerge>
                <feMergeNode in="shadowMatrixOuter1"></feMergeNode>
                <feMergeNode in="SourceGraphic"></feMergeNode>
                <feMergeNode in="shadowMatrixInner1"></feMergeNode>
                <feMergeNode in="shadowMatrixInner2"></feMergeNode>
            </feMerge>
        </filter>
        <rect id="path-3" x="6" y="3" width="587" height="113" rx="8"></rect>
        <radialGradient cx="32.3405564%" cy="26.198296%" fx="32.3405564%" fy="26.198296%" r="100%" id="radialGradient-4">
            <stop stop-color="#F6F6F6" stop-opacity="0.96447577" offset="0%"></stop>
            <stop stop-color="#000000" offset="100%"></stop>
        </radialGradient>
        <filter x="-50%" y="-50%" width="200%" height="200%" filterUnits="objectBoundingBox" id="filter-5">
            <feOffset dx="0" dy="1" in="SourceAlpha" result="shadowOffsetOuter1"></feOffset>
            <feGaussianBlur stdDeviation="1" in="shadowOffsetOuter1" result="shadowBlurOuter1"></feGaussianBlur>
            <feColorMatrix values="0 0 0 0 0   0 0 0 0 0   0 0 0 0 0  0 0 0 0.35 0" in="shadowBlurOuter1" type="matrix" result="shadowMatrixOuter1"></feColorMatrix>
            <feMerge>
                <feMergeNode in="shadowMatrixOuter1"></feMergeNode>
                <feMergeNode in="SourceGraphic"></feMergeNode>
            </feMerge>
        </filter>
        <linearGradient x1="138.933263%" y1="50%" x2="-60.6813131%" y2="50%" id="linearGradient-6">
            <stop stop-color="#FFFFFF" offset="0%"></stop>
            <stop stop-color="#000000" offset="100%"></stop>
        </linearGradient>
        <filter x="-50%" y="-50%" width="200%" height="200%" filterUnits="objectBoundingBox" id="filter-7">
            <feOffset dx="0" dy="1" in="SourceAlpha" result="shadowOffsetOuter1"></feOffset>
            <feGaussianBlur stdDeviation="1" in="shadowOffsetOuter1" result="shadowBlurOuter1"></feGaussianBlur>
            <feColorMatrix values="0 0 0 0 0   0 0 0 0 0   0 0 0 0 0  0 0 0 0.35 0" in="shadowBlurOuter1" type="matrix" result="shadowMatrixOuter1"></feColorMatrix>
            <feMerge>
                <feMergeNode in="shadowMatrixOuter1"></feMergeNode>
                <feMergeNode in="SourceGraphic"></feMergeNode>
            </feMerge>
        </filter>
        <filter x="-50%" y="-50%" width="200%" height="200%" filterUnits="objectBoundingBox" id="filter-8">
            <feOffset dx="0" dy="1" in="SourceAlpha" result="shadowOffsetOuter1"></feOffset>
            <feGaussianBlur stdDeviation="1" in="shadowOffsetOuter1" result="shadowBlurOuter1"></feGaussianBlur>
            <feColorMatrix values="0 0 0 0 0   0 0 0 0 0   0 0 0 0 0  0 0 0 0.35 0" in="shadowBlurOuter1" type="matrix" result="shadowMatrixOuter1"></feColorMatrix>
            <feMerge>
                <feMergeNode in="shadowMatrixOuter1"></feMergeNode>
                <feMergeNode in="SourceGraphic"></feMergeNode>
            </feMerge>
        </filter>
        <filter x="-50%" y="-50%" width="200%" height="200%" filterUnits="objectBoundingBox" id="filter-9">
            <feOffset dx="0" dy="1" in="SourceAlpha" result="shadowOffsetOuter1"></feOffset>
            <feGaussianBlur stdDeviation="1" in="shadowOffsetOuter1" result="shadowBlurOuter1"></feGaussianBlur>
            <feColorMatrix values="0 0 0 0 0   0 0 0 0 0   0 0 0 0 0  0 0 0 0.35 0" in="shadowBlurOuter1" type="matrix" result="shadowMatrixOuter1"></feColorMatrix>
            <feMerge>
                <feMergeNode in="shadowMatrixOuter1"></feMergeNode>
                <feMergeNode in="SourceGraphic"></feMergeNode>
            </feMerge>
        </filter>
    </defs>
    <g id="Page-1" stroke="none" stroke-width="1" fill="none" fill-rule="evenodd" sketch:type="MSPage">
        <g id="Logo" sketch:type="MSLayerGroup">
            <g id="Rectangle-6" filter="url(#filter-2)">
                <use fill="#F8D01C" sketch:type="MSShapeGroup" xlink:href="#path-3"></use>
                <use fill-opacity="0.0620918843" fill="none" xlink:href="#path-3"></use>
                <use fill="url(#radialGradient-1)" xlink:href="#path-3"></use>
            </g>
            <g id="Rectangle-4-+-Build-3-+-T--xic-2" transform="translate(29.000000, 22.000000)" fill="#000000" sketch:type="MSShapeGroup">
                <path d="M5.2286107,52.9408585 C1.95331916,48.7763876 0,43.5239544 0,37.8153437 L0,24.4909626 C0,10.9599401 10.9690236,0 24.5,0 C38.0339515,0 49,10.9649775 49,24.4909626 L49,37.8153437 C49,43.8442028 46.8224055,49.362645 43.2108489,53.628649 C41.6754948,44.5640536 33.728177,37.6576577 24.1549296,37.6576577 C14.8253136,37.6576577 7.039923,44.2170022 5.22861025,52.9408607 L5.2286107,52.9408585 Z M13.8028169,31.4954955 C16.4708967,31.4954955 18.6338028,29.3496891 18.6338028,26.7027027 C18.6338028,24.0557163 16.4708967,21.9099099 13.8028169,21.9099099 C11.1347371,21.9099099 8.97183099,24.0557163 8.97183099,26.7027027 C8.97183099,29.3496891 11.1347371,31.4954955 13.8028169,31.4954955 Z M34.5070423,31.4954955 C37.1751221,31.4954955 39.3380282,29.3496891 39.3380282,26.7027027 C39.3380282,24.0557163 37.1751221,21.9099099 34.5070423,21.9099099 C31.8389624,21.9099099 29.6760563,24.0557163 29.6760563,26.7027027 C29.6760563,29.3496891 31.8389624,31.4954955 34.5070423,31.4954955 Z M24.1549296,73.9459459 C33.6837862,73.9459459 41.4084507,66.2823516 41.4084507,56.8288288 C41.4084507,47.3753061 33.6837862,39.7117117 24.1549296,39.7117117 C14.626073,39.7117117 6.90140845,47.3753061 6.90140845,56.8288288 C6.90140845,66.2823516 14.626073,73.9459459 24.1549296,73.9459459 Z M35.4433462,63.8468468 C36.3009433,62.3614451 35.801527,60.4675656 34.3278686,59.6167485 C32.8542103,58.7659315 30.9643543,59.280364 30.1067572,60.7657658 C29.2491601,62.2511675 29.7485765,64.145047 31.2222348,64.9958641 C32.6958932,65.8466811 34.5857491,65.3322486 35.4433462,63.8468468 Z M35.4433462,50.4954955 C34.5857491,49.0100938 32.6958932,48.4956612 31.2222348,49.3464783 C29.7485765,50.1972953 29.2491601,52.0911748 30.1067572,53.5765766 C30.9643543,55.0619783 32.8542103,55.5764109 34.3278686,54.7255938 C35.801527,53.8747768 36.3009433,51.9808972 35.4433462,50.4954955 Z M23.8098592,49.981982 C25.5250533,49.981982 26.915493,48.602535 26.915493,46.9009009 C26.915493,45.1992668 25.5250533,43.8198198 23.8098592,43.8198198 C22.094665,43.8198198 20.7042254,45.1992668 20.7042254,46.9009009 C20.7042254,48.602535 22.094665,49.981982 23.8098592,49.981982 Z M23.8098592,60.2522523 C25.5250533,60.2522523 26.915493,58.8728053 26.915493,57.1711712 C26.915493,55.4695371 25.5250533,54.0900901 23.8098592,54.0900901 C22.094665,54.0900901 20.7042254,55.4695371 20.7042254,57.1711712 C20.7042254,58.8728053 22.094665,60.2522523 23.8098592,60.2522523 Z M23.8098592,70.5225225 C25.5250533,70.5225225 26.915493,69.1430755 26.915493,67.4414414 C26.915493,65.7398073 25.5250533,64.3603604 23.8098592,64.3603604 C22.094665,64.3603604 20.7042254,65.7398073 20.7042254,67.4414414 C20.7042254,69.1430755 22.094665,70.5225225 23.8098592,70.5225225 Z M17.5129611,60.7657658 C16.655364,59.280364 14.765508,58.7659315 13.2918497,59.6167485 C11.8181913,60.4675656 11.318775,62.3614451 12.1763721,63.8468468 C13.0339692,65.3322486 14.9238251,65.8466811 16.3974835,64.9958641 C17.8711418,64.145047 18.3705582,62.2511675 17.5129611,60.7657658 Z M17.5129611,53.5765766 C18.3705582,52.0911748 17.8711418,50.1972953 16.3974835,49.3464783 C14.9238251,48.4956612 13.0339692,49.0100938 12.1763721,50.4954955 C11.318775,51.9808972 11.8181913,53.8747768 13.2918497,54.7255938 C14.765508,55.5764109 16.655364,55.0619783 17.5129611,53.5765766 Z" id="Rectangle-4"></path>
            </g>
            <rect id="Rectangle-7" fill="#000000" sketch:type="MSShapeGroup" x="97" y="20" width="479" height="78" rx="3"></rect>
            <circle id="Oval-56" fill="url(#radialGradient-4)" filter="url(#filter-5)" sketch:type="MSShapeGroup" transform="translate(18.500000, 14.500000) rotate(40.000000) translate(-18.500000, -14.500000) " cx="18.5" cy="14.5" r="5.5"></circle>
            <rect id="Rectangle-8" fill="url(#linearGradient-6)" sketch:type="MSShapeGroup" transform="translate(18.500000, 14.500000) rotate(40.000000) translate(-18.500000, -14.500000) " x="17.5396825" y="9.17460317" width="1.92063492" height="10.6507937"></rect>
            <circle id="Oval-57" fill="url(#radialGradient-4)" filter="url(#filter-7)" sketch:type="MSShapeGroup" transform="translate(582.500000, 14.500000) rotate(-30.000000) translate(-582.500000, -14.500000) " cx="582.5" cy="14.5" r="5.5"></circle>
            <rect id="Rectangle-9" fill="url(#linearGradient-6)" sketch:type="MSShapeGroup" transform="translate(582.500000, 14.500000) rotate(-30.000000) translate(-582.500000, -14.500000) " x="581.539683" y="9.17460317" width="1.92063492" height="10.6507937"></rect>
            <g id="Oval-56-+-Rectangle-8" transform="translate(575.000000, 97.000000)" sketch:type="MSShapeGroup">
                <circle id="Oval-56" fill="url(#radialGradient-4)" filter="url(#filter-8)" transform="translate(7.500000, 7.500000) rotate(40.000000) translate(-7.500000, -7.500000) " cx="7.5" cy="7.5" r="5.5"></circle>
                <rect id="Rectangle-8" fill="url(#linearGradient-6)" transform="translate(7.500000, 7.500000) rotate(40.000000) translate(-7.500000, -7.500000) " x="6.53968254" y="2.17460317" width="1.92063492" height="10.6507937"></rect>
            </g>
            <g id="Oval-57-+-Rectangle-9" transform="translate(11.000000, 97.000000)" sketch:type="MSShapeGroup">
                <circle id="Oval-57" fill="url(#radialGradient-4)" filter="url(#filter-9)" transform="translate(7.500000, 7.500000) rotate(-30.000000) translate(-7.500000, -7.500000) " cx="7.5" cy="7.5" r="5.5"></circle>
                <rect id="Rectangle-9" fill="url(#linearGradient-6)" transform="translate(7.500000, 7.500000) rotate(-30.000000) translate(-7.500000, -7.500000) " x="6.53968254" y="2.17460317" width="1.92063492" height="10.6507937"></rect>
            </g>
            <path d="M353.777344,33.3554688 L375.960938,33.3554688 C382.007843,33.3554688 386.308581,35.1601382 388.863281,38.7695312 C390.363289,40.9023544 391.113281,43.3632673 391.113281,46.1523438 C391.113281,49.4101725 390.187509,52.0820208 388.335938,54.1679688 C387.374995,55.2695368 385.992197,56.2773392 384.1875,57.1914062 C386.835951,58.1992238 388.8164,59.3359312 390.128906,60.6015625 C392.44923,62.8515737 393.609375,65.9570114 393.609375,69.9179688 C393.609375,73.2461104 392.566417,76.257799 390.480469,78.953125 C387.363266,82.9843952 382.406284,85 375.609375,85 L353.777344,85 L353.777344,33.3554688 Z M373.359375,55.1875 C376.312515,55.1875 378.609367,54.7773479 380.25,53.9570312 C382.828138,52.6679623 384.117188,50.347673 384.117188,46.9960938 C384.117188,43.6210769 382.746107,41.3476621 380.003906,40.1757812 C378.457024,39.519528 376.160171,39.1914062 373.113281,39.1914062 L360.632812,39.1914062 L360.632812,55.1875 L373.359375,55.1875 Z M375.714844,79.0234375 C380.003928,79.0234375 383.062491,77.7812624 384.890625,75.296875 C386.039068,73.7265546 386.613281,71.8281361 386.613281,69.6015625 C386.613281,65.8515438 384.937517,63.2968818 381.585938,61.9375 C379.804679,61.2109339 377.449233,60.8476562 374.519531,60.8476562 L360.632812,60.8476562 L360.632812,79.0234375 L375.714844,79.0234375 Z M409.570312,33.3554688 L409.570312,65.2773438 C409.570312,69.0273625 410.27343,72.1445188 411.679688,74.6289062 C413.765635,78.378925 417.281225,80.2539062 422.226562,80.2539062 C428.15628,80.2539062 432.187489,78.2265828 434.320312,74.171875 C435.468756,71.968739 436.042969,69.0039249 436.042969,65.2773438 L436.042969,33.3554688 L443.144531,33.3554688 L443.144531,62.359375 C443.144531,68.7109693 442.289071,73.5976391 440.578125,77.0195312 C437.437484,83.2539374 431.507856,86.3710938 422.789062,86.3710938 C414.070269,86.3710938 408.152359,83.2539374 405.035156,77.0195312 C403.32421,73.5976391 402.46875,68.7109693 402.46875,62.359375 L402.46875,33.3554688 L409.570312,33.3554688 Z M455.554688,33.3554688 L462.621094,33.3554688 L462.621094,85 L455.554688,85 L455.554688,33.3554688 Z M473.976562,33.3554688 L480.972656,33.3554688 L480.972656,78.8476562 L507.128906,78.8476562 L507.128906,85 L473.976562,85 L473.976562,33.3554688 Z M514.335938,33.3554688 L535.253906,33.3554688 C542.355504,33.3554688 547.863262,35.8749748 551.777344,40.9140625 C555.269549,45.4609602 557.015625,51.2851207 557.015625,58.3867188 C557.015625,63.8711212 555.984385,68.8281029 553.921875,73.2578125 C550.289044,81.0859766 544.043013,85 535.183594,85 L514.335938,85 L514.335938,33.3554688 Z M533.847656,79.0234375 C536.214856,79.0234375 538.160149,78.7773462 539.683594,78.2851562 C542.402357,77.3710892 544.628898,75.6132943 546.363281,73.0117188 C547.746101,70.9257708 548.742184,68.2539225 549.351562,64.9960938 C549.703127,63.0507715 549.878906,61.2461021 549.878906,59.5820312 C549.878906,53.1835618 548.607435,48.2148614 546.064453,44.6757812 C543.521472,41.1367011 539.425809,39.3671875 533.777344,39.3671875 L521.367188,39.3671875 L521.367188,79.0234375 L533.847656,79.0234375 Z" id="BUILD" fill="#F8D01C" sketch:type="MSShapeGroup"></path>
            <path d="M160.765625,32.6484375 L160.765625,41.8242188 L145.261719,41.8242188 L145.261719,84.46875 L134.363281,84.46875 L134.363281,41.8242188 L118.789062,41.8242188 L118.789062,32.6484375 L160.765625,32.6484375 Z M205.730469,79.8632812 C201.816387,83.8945514 196.156287,85.9101562 188.75,85.9101562 C181.343713,85.9101562 175.683613,83.8945514 171.769531,79.8632812 C166.519505,74.917944 163.894531,67.7930153 163.894531,58.4882812 C163.894531,48.9960463 166.519505,41.8711175 171.769531,37.1132812 C175.683613,33.0820111 181.343713,31.0664062 188.75,31.0664062 C196.156287,31.0664062 201.816387,33.0820111 205.730469,37.1132812 C210.957057,41.8711175 213.570312,48.9960463 213.570312,58.4882812 C213.570312,67.7930153 210.957057,74.917944 205.730469,79.8632812 Z M198.962891,71.9882812 C201.482434,68.8242029 202.742188,64.3242479 202.742188,58.4882812 C202.742188,52.6757522 201.482434,48.1816565 198.962891,45.0058594 C196.443347,41.8300622 193.039084,40.2421875 188.75,40.2421875 C184.460916,40.2421875 181.039075,41.8242029 178.484375,44.9882812 C175.929675,48.1523596 174.652344,52.6523146 174.652344,58.4882812 C174.652344,64.3242479 175.929675,68.8242029 178.484375,71.9882812 C181.039075,75.1523596 184.460916,76.734375 188.75,76.734375 C193.039084,76.734375 196.443347,75.1523596 198.962891,71.9882812 Z M230.09375,84.46875 L217.507812,84.46875 L234.171875,58.0664062 L218.316406,32.6484375 L231.253906,32.6484375 L240.5,49.4882812 L249.992188,32.6484375 L262.507812,32.6484375 L246.652344,57.6445312 L263.492188,84.46875 L250.34375,84.46875 L240.5,66.8203125 L230.09375,84.46875 Z M279.769531,84.46875 L269.011719,84.46875 L269.011719,32.6484375 L279.769531,32.6484375 L279.769531,84.46875 Z M294.886719,38.0625 C299.10549,33.7968537 304.472624,31.6640625 310.988281,31.6640625 C319.707075,31.6640625 326.082011,34.5234089 330.113281,40.2421875 C332.339855,43.4531411 333.535155,46.6757651 333.699219,49.9101562 L322.871094,49.9101562 C322.167965,47.4257688 321.265631,45.5507876 320.164062,44.2851562 C318.195303,42.035145 315.277363,40.9101562 311.410156,40.9101562 C307.472637,40.9101562 304.367199,42.498031 302.09375,45.6738281 C299.820301,48.8496253 298.683594,53.3437209 298.683594,59.15625 C298.683594,64.9687791 299.884754,69.3222512 302.287109,72.2167969 C304.689465,75.1113426 307.742169,76.5585938 311.445312,76.5585938 C315.242206,76.5585938 318.136709,75.3164187 320.128906,72.8320312 C321.230474,71.4960871 322.144528,69.4922009 322.871094,66.8203125 L333.59375,66.8203125 C332.656245,72.4687782 330.259785,77.0624823 326.404297,80.6015625 C322.548809,84.1406427 317.609405,85.9101562 311.585938,85.9101562 C304.132775,85.9101562 298.273459,83.5195552 294.007812,78.7382812 C289.742166,73.9335697 287.609375,67.3476981 287.609375,58.9804688 C287.609375,49.9335485 290.035132,42.960962 294.886719,38.0625 L294.886719,38.0625 Z" id="TOXIC" fill="#F8CF1C" sketch:type="MSShapeGroup"></path>
        </g>
    </g>
</svg>